<?xml version="1.0" encoding="UTF-8" standalone="no"?>
<svg
   xmlns:dc="http://purl.org/dc/elements/1.1/"
   xmlns:cc="http://creativecommons.org/ns#"
   xmlns:rdf="http://www.w3.org/1999/02/22-rdf-syntax-ns#"
   xmlns:svg="http://www.w3.org/2000/svg"
   xmlns="http://www.w3.org/2000/svg"
   xmlns:sodipodi="http://sodipodi.sourceforge.net/DTD/sodipodi-0.dtd"
   xmlns:inkscape="http://www.inkscape.org/namespaces/inkscape"
   version="1.1"
   id="svg2"
   inkscape:version="0.48+devel r10582 custom"
   sodipodi:docname="arrows-movements.svg"
   x="0px"
   y="0px"
   width="500px"
   height="500px"
   viewBox="125 250 500 500"
   enable-background="new 125 250 500 500"
   xml:space="preserve">
   
   <metadata
   id="metadata16"><rdf:RDF><cc:Work
       rdf:about=""><dc:format>image/svg+xml</dc:format><dc:type
         rdf:resource="http://purl.org/dc/dcmitype/StillImage" /></cc:Work></rdf:RDF></metadata><defs
   id="defs14" /><path
   id="horizontal_and_vertical_movement"
   d="m 437.03104,473.26947 c -2.13462,-2.33521 -3.88075,-1.54238 -3.88075,1.75668 l 0,6.00482 -39.1812,0 0,-39.18332 6.00376,0 c 3.29906,0 4.09294,-1.74507 1.75668,-3.87969 L 378.956,421.043 356.18247,437.96796 c -2.33732,2.13357 -1.54449,3.87969 1.75457,3.87969 l 6.00587,0 0,39.18226 -39.18226,0 0,-6.00481 c 0,-3.29906 -1.74507,-4.094 -3.88074,-1.75669 L 303.956,496.043 l 16.92391,22.77142 c 2.13462,2.33626 3.88074,1.5466 3.88074,-1.75246 l 0,-6.00587 39.18226,0 0,39.18226 -6.00587,0 c -3.298,0 -4.09189,1.74401 -1.75457,3.88074 l 22.77247,16.92391 22.77459,-16.92391 c 2.33626,-2.13567 1.54238,-3.88074 -1.75563,-3.88074 l -6.00481,0 0,-39.18226 39.18226,0 0,6.00481 c 0,3.29906 1.74507,4.09295 3.88074,1.75669 l 16.92602,-22.77353 -16.92707,-22.77459 z"
   style="fill:#99e3ff"
   inkscape:connector-curvature="0"
   inkscape:label="#horizontal and vertical movement"><title
     id="title3115">horizontal and vertical movement</title></path><path
   id="vertical_movement"
   d="m 269.89932,550.23753 -6.00473,0 0,-108.38917 6.00473,0 c 3.29902,0 4.09183,-1.74504 1.75455,-3.88069 L 248.88171,421.044 226.1085,437.96767 c -2.33517,2.13459 -1.54235,3.88069 1.75666,3.88069 l 6.00473,0 0,108.38917 -6.00473,0 c -3.29901,0 -4.09183,1.74504 -1.75666,3.87964 l 22.77321,16.92683 22.77216,-16.92683 c 2.33728,-2.13354 1.54447,-3.87964 -1.75455,-3.87964"
   style="fill:#99e3ff"
   inkscape:connector-curvature="0"
   inkscape:label="#vertical movement"><title
     id="title3113">vertical movement</title></path><path
   id="horizontal_movement"
   d="m 324.76206,623.82472 0,-6.00688 108.38993,0.001 0,6.00477 c 0,3.29903 1.74506,4.09397 3.87967,1.75667 L 453.9565,602.80697 437.03166,580.0336 c -2.13355,-2.33625 -3.87967,-1.54342 -3.87967,1.75561 l 0,6.00477 -108.38993,0 0,-6.00477 c 0,-3.29692 -1.74505,-4.09186 -3.88072,-1.75561 l -16.92484,22.77337 16.92484,22.77231 c 2.13567,2.33625 3.88072,1.54448 3.88072,-1.75456"
   style="fill:#99e3ff"
   inkscape:connector-curvature="0"
   inkscape:label="#horizontal movement"><title
     id="title3111">horizontal movement</title></path>

</svg>