<?xml version="1.0" encoding="UTF-8" standalone="no"?>
<!-- Created with Inkscape (http://www.inkscape.org/) -->

<svg
   xmlns:dc="http://purl.org/dc/elements/1.1/"
   xmlns:cc="http://creativecommons.org/ns#"
   xmlns:rdf="http://www.w3.org/1999/02/22-rdf-syntax-ns#"
   xmlns:svg="http://www.w3.org/2000/svg"
   xmlns="http://www.w3.org/2000/svg"
   xmlns:sodipodi="http://sodipodi.sourceforge.net/DTD/sodipodi-0.dtd"
   xmlns:inkscape="http://www.inkscape.org/namespaces/inkscape"
   id="svg2"
   version="1.1"
   inkscape:version="0.48+devel r10582 custom"
   width="750"
   height="1000"
   xml:space="preserve"
   sodipodi:docname="arrows-movements.svg"><metadata
     id="metadata8"><rdf:RDF><cc:Work
         rdf:about=""><dc:format>image/svg+xml</dc:format><dc:type
           rdf:resource="http://purl.org/dc/dcmitype/StillImage" /><dc:title /></cc:Work></rdf:RDF></metadata><defs
     id="defs6"><clipPath
       clipPathUnits="userSpaceOnUse"
       id="clipPath16"><path
         d="m 0,841.89 595.28,0 L 595.28,0 0,0 0,841.89 z"
         id="path18" /></clipPath><clipPath
       clipPathUnits="userSpaceOnUse"
       id="clipPath24"><path
         d="m 106.162,477.335 113.67,0 0,-113.67 -113.67,0 0,113.67 z"
         id="path26" /></clipPath><clipPath
       clipPathUnits="userSpaceOnUse"
       id="clipPath40"><path
         d="m 282.88,477.335 36.55,0 0,-113.67 -36.55,0 0,113.67 z"
         id="path42" /></clipPath><clipPath
       clipPathUnits="userSpaceOnUse"
       id="clipPath56"><path
         d="m 375.168,438.775 113.67,0 0,-36.55 -113.67,0 0,36.55 z"
         id="path58" /></clipPath></defs><sodipodi:namedview
     pagecolor="#ffffff"
     bordercolor="#666666"
     borderopacity="1"
     objecttolerance="10"
     gridtolerance="10"
     guidetolerance="10"
     inkscape:pageopacity="0"
     inkscape:pageshadow="2"
     inkscape:window-x="0"
     inkscape:window-y="0"
     inkscape:window-maximized="1"
     inkscape:current-layer="g10" /><g
     id="g10"
     inkscape:groupmode="layer"
     inkscape:label="arrows-slides"
     transform="matrix(1.25,0,0,-1.25,0,1052.3625)"><g
       id="g20"><g
         id="g22" /><g
         id="g28"><g
           clip-path="url(#clipPath24)"
           id="g30"
           style="opacity:0.5"><g
             transform="translate(207.0063,437.7578)"
             id="g32"><path
               d="m 0,0 c -1.618,1.77 -2.941,1.169 -2.941,-1.331 l 0,-4.55 -29.691,0 0,29.692 4.549,0 c 2.5,0 3.102,1.323 1.331,2.94 L -44.009,39.577 -61.267,26.751 c -1.771,-1.617 -1.17,-2.94 1.33,-2.94 l 4.551,0 0,-29.692 -29.692,0 0,4.55 c 0,2.5 -1.323,3.102 -2.941,1.331 l -12.825,-17.258 12.825,-17.257 c 1.618,-1.77 2.941,-1.171 2.941,1.329 l 0,4.552 29.692,0 0,-29.692 -4.551,0 c -2.499,0 -3.101,-1.323 -1.33,-2.941 l 17.257,-12.826 17.258,12.826 c 1.771,1.618 1.169,2.941 -1.33,2.941 l -4.551,0 0,29.691 29.692,0 0,-4.55 c 0,-2.5 1.323,-3.101 2.941,-1.331 L 12.826,-17.258 0,0 z"
               style="fill:#42b1d9;fill-opacity:1;fill-rule:nonzero;stroke:none"
               id="path34"
               inkscape:connector-curvature="0" /></g></g></g></g><g
       id="g36"><g
         id="g38" /><g
         id="g44"><g
           clip-path="url(#clipPath40)"
           id="g46"
           style="opacity:0.5"><g
             transform="translate(317.082,379.4316)"
             id="g48"><path
               d="m 0,0 -4.55,0 0,82.137 4.55,0 c 2.5,0 3.101,1.323 1.33,2.941 L -15.927,97.903 -33.185,85.078 c -1.77,-1.618 -1.169,-2.941 1.331,-2.941 l 4.55,0 0,-82.137 -4.55,0 c -2.5,0 -3.101,-1.323 -1.331,-2.94 L -15.927,-15.767 1.33,-2.94 C 3.101,-1.323 2.5,0 0,0"
               style="fill:#42b1d9;fill-opacity:1;fill-rule:nonzero;stroke:none"
               id="path50"
               inkscape:connector-curvature="0" /></g></g></g></g><g
       id="g52"><g
         id="g54" /><g
         id="g60"><g
           clip-path="url(#clipPath56)"
           id="g62"
           style="opacity:0.5"><g
             transform="translate(390.9346,404.5723)"
             id="g64"><path
               d="m 0,0 0,4.552 82.137,-10e-4 0,-4.55 c 0,-2.5 1.323,-3.102 2.94,-1.331 L 97.903,15.928 85.077,33.186 c -1.617,1.77 -2.94,1.169 -2.94,-1.331 l 0,-4.55 -82.137,0 0,4.55 c 0,2.499 -1.323,3.101 -2.941,1.331 L -15.767,15.928 -2.941,-1.329 C -1.323,-3.1 0,-2.5 0,0"
               style="fill:#42b1d9;fill-opacity:1;fill-rule:nonzero;stroke:none"
               id="path66"
               inkscape:connector-curvature="0" /></g></g></g></g></g></svg>