<?xml version="1.0" encoding="utf-8"?>
<svg version="1.1"
	id="svg96"
	xmlns="http://www.w3.org/2000/svg"
	xmlns:svg="http://www.w3.org/2000/svg"
	xmlns:dc="http://purl.org/dc/elements/1.1/"
	xmlns:ev="http://www.w3.org/2001/xml-events"
	xmlns:rdf="http://www.w3.org/1999/02/22-rdf-syntax-ns#"
	xmlns:cc="http://creativecommons.org/ns#"
	xmlns:xlink="http://www.w3.org/1999/xlink" 
	xmlns:sodipodi="http://sodipodi.sourceforge.net/DTD/sodipodi-0.dtd"
	xmlns:inkscape="http://www.inkscape.org/namespaces/inkscape"
	
	sodipodi:docname="Icon-lock.svg"

	x="0px"
	y="0px"
	width="500px"
	height="500px"
	viewBox="0 0 500 500"
	enable-background="new 0 0 500 500"
	xml:space="preserve">
	
	<metadata>
		<rdf:RDF>
		</rdf:RDF>
	</metadata>
	
<g id="g114" transform="translate(125,424)">
	<path id="path116" fill="#232323" d="M38.499-289.781h-45v-22.5c0-12.405,10.094-22.5,22.5-22.5c12.405,0,22.5,10.095,22.5,22.5
		V-289.781z M20.999-261.701v16.922h-10v-16.922c-1.531-1.373-2.5-3.361-2.5-5.578c0-4.142,3.358-7.5,7.5-7.5s7.5,3.358,7.5,7.5
		C23.499-265.062,22.529-263.074,20.999-261.701 M50.999-289.781v-22.5c0-19.299-15.701-35-35-35s-35,15.701-35,35v22.5h-7.5v62.501
		h85v-62.501H50.999z"/>
</g>

<g id="g118" transform="translate(236,401.5371)">
	<path id="path120" fill="#232323" d="M118.352-239.238v16.922h-10v-16.922c-1.529-1.373-2.5-3.359-2.5-5.578
		c0-4.144,3.358-7.5,7.5-7.5c4.144,0,7.5,3.356,7.5,7.5C120.852-242.598,119.883-240.611,118.352-239.238 M148.352-267.317v-30
		c0-19.3-15.699-35-35-35c-19.299,0-35,15.7-35,35v7.5h12.5v-7.5c0-12.406,10.096-22.5,22.5-22.5c12.406,0,22.5,10.094,22.5,22.5v30
		h-65v62.5h85v-62.5H148.352z"/>
</g>

<g id="g122" transform="translate(334,401.5371)">
	<path id="path124" fill="#232323" d="M-188.001-34.238v16.922h-10v-16.922c-1.531-1.373-2.5-3.359-2.5-5.578
		c0-4.143,3.358-7.5,7.5-7.5s7.5,3.357,7.5,7.5C-185.501-37.598-186.471-35.611-188.001-34.238 M-135.501-127.316
		c-19.299,0-35,15.701-35,35v30h-65v62.5h85v-62.5h-7.5v-30c0-12.406,10.093-22.5,22.5-22.5c12.407,0,22.5,10.094,22.5,22.5v7.5
		h12.5v-7.5C-100.501-111.615-116.202-127.316-135.501-127.316"/>
</g>

<g id="g126" transform="translate(482.2773,397.0957)">
	<path id="path128" fill="#232323" d="M-131.633-24.244l11.965,11.965l-7.071,7.07l-11.965-11.965
		c-2.054,0.111-4.145-0.609-5.713-2.178c-2.929-2.928-2.929-7.678,0-10.605c2.929-2.93,7.678-2.93,10.606,0
		C-132.241-28.389-131.521-26.299-131.633-24.244 M-160.326-127.186c-13.646,13.646-13.646,35.852,0,49.498l21.213,21.213
		l-45.962,45.963l44.195,44.194l60.104-60.104l-44.193-44.191l-5.306,5.303l-21.213-21.213c-8.771-8.772-8.771-23.047,0-31.819
		c8.774-8.773,23.048-8.773,31.82,0l5.303,5.303l8.84-8.838l-5.304-5.306C-124.476-140.832-146.679-140.832-160.326-127.186"/>
</g>

</svg>
